PathFileType	4	(X/Y/Z)	C:/Users/opensim2020/Desktop/walking_exp_matlab/subject03_walking11_straight_01.trc	
DataRate	CameraRate	NumFrames	NumMarkers	Units	OrigDataRate	OrigDataStartFrame	OrigNumFrames	
100.00	100.00	4	46	mm	100.00	804	454	
Frame#	Time	LFHD			RFHD			LBHD			RBHD			C7			T10			CLAV			STRN			RBAK			LSHO			LUPA			LELB			LFRM			LWRA			LWRB			LFIN			RSHO			RUPA			RELB			RFRM			RWRA			RWRB			RFIN			LASI			RASI			LPSI			RPSI			LTHI			LKNE			LTIB			LANK			LHEE			LTOE			RTHI			RKNE			RTIB			RANK			RHEE			RTOE			*39			*40			*41			*42			*43			*44			*45			
		X1	Y1	Z1	X2	Y2	Z2	X3	Y3	Z3	X4	Y4	Z4	X5	Y5	Z5	X6	Y6	Z6	X7	Y7	Z7	X8	Y8	Z8	X9	Y9	Z9	X10	Y10	Z10	X11	Y11	Z11	X12	Y12	Z12	X13	Y13	Z13	X14	Y14	Z14	X15	Y15	Z15	X16	Y16	Z16	X17	Y17	Z17	X18	Y18	Z18	X19	Y19	Z19	X20	Y20	Z20	X21	Y21	Z21	X22	Y22	Z22	X23	Y23	Z23	X24	Y24	Z24	X25	Y25	Z25	X26	Y26	Z26	X27	Y27	Z27	X28	Y28	Z28	X29	Y29	Z29	X30	Y30	Z30	X31	Y31	Z31	X32	Y32	Z32	X33	Y33	Z33	X34	Y34	Z34	X35	Y35	Z35	X36	Y36	Z36	X37	Y37	Z37	X38	Y38	Z38	X39	Y39	Z39	X40	Y40	Z40	X41	Y41	Z41	X42	Y42	Z42	X43	Y43	Z43	X44	Y44	Z44	X45	Y45	Z45	X46	Y46	Z46	

171	1.700	1341.80322	-434.70990	1617.94312	1474.67041	-441.02106	1626.83972	1343.11877	-559.85443	1566.57239	1474.12854	-561.32703	1575.27136	1403.40186	-585.79474	1415.03015	1406.69324	-625.96820	1103.29749	1407.71899	-465.62024	1335.07520	1402.36060	-425.94107	1169.05798	1493.63354	-646.97772	1240.36450	1251.08484	-505.24759	1372.09338	1178.00061	-491.93588	1179.65833	1164.87427	-458.56769	1061.59973	1174.62439	-389.20197	952.43579	1214.57581	-328.99033	854.73138	1163.54749	-349.10114	846.23792	1178.31396	-297.76740	782.43915	1566.06299	-519.70349	1360.04272	1633.92859	-531.18939	1136.49341	1644.81860	-519.21680	1023.02167	1643.01868	-508.20224	886.02722	1603.54224	-484.14969	789.95007	1650.00378	-512.52783	786.24164	1636.79468	-493.03162	714.42621	1284.68079	-471.46619	934.06818	1523.52844	-459.79834	935.63867	1346.12512	-630.98633	961.51489	1493.90271	-622.36334	967.32904	1249.70483	-576.42206	642.68604	1281.66943	-612.13275	467.30038	1283.56750	-725.20807	301.68164	1325.69250	-804.31934	103.64357	1364.13757	-850.94189	82.17884	1345.20093	-666.30408	32.82795	1567.84985	-471.36459	644.96985	1529.60486	-408.71094	475.27124	1538.87036	-406.96704	288.94861	1497.00330	-378.58463	73.61411	1445.74756	-421.01309	41.68848	1482.26001	-235.89389	39.41634																					 
172	1.710	1343.00659	-427.98416	1619.47766	1475.78320	-434.09393	1628.39209	1344.58679	-553.06189	1567.89453	1475.62402	-554.29358	1576.66687	1404.82349	-578.55548	1416.38403	1407.38513	-618.47925	1104.66333	1409.08069	-458.14014	1336.67688	1403.67175	-418.49615	1170.56812	1495.12988	-639.37891	1241.76392	1252.37903	-498.05948	1373.82617	1179.91284	-486.22116	1180.84253	1167.12817	-453.91901	1062.41357	1176.16260	-386.71136	951.80896	1215.40930	-328.20221	852.76099	1164.36462	-348.83228	844.85297	1178.65259	-298.71487	779.97101	1567.42981	-512.03888	1361.63184	1634.81653	-522.46100	1137.92273	1645.53308	-510.21570	1024.55725	1644.07703	-500.49164	887.46967	1604.65674	-477.67618	790.94165	1651.62012	-505.36292	787.64386	1638.23083	-487.04660	715.52484	1286.44885	-463.26120	935.05304	1524.95618	-452.20816	937.90063	1346.95410	-623.11725	962.68738	1494.61829	-614.87756	969.25433	1250.15076	-568.60907	643.54688	1281.48315	-604.54944	468.22104	1283.38159	-719.94049	303.85056	1325.01733	-802.35333	107.44351	1363.99622	-848.90973	87.03252	1345.15930	-666.09332	32.84662	1568.93616	-463.39206	647.05042	1530.32922	-403.27670	476.57248	1539.74988	-404.56018	289.48889	1497.53235	-378.84674	74.06508	1445.97961	-421.07919	41.68319	1482.71570	-236.05609	39.32512	1388.49414	-515.07233	1678.20215																		 
173	1.720	1344.17358	-421.26910	1621.04248	1476.93860	-427.16162	1629.97742	1346.07324	-546.31622	1569.27771	1476.98877	-547.17413	1578.11157	1406.27112	-571.34283	1417.71777	1408.24915	-610.96814	1106.12268	1410.50464	-450.64517	1338.28760	1404.96252	-410.96576	1172.18860	1496.71375	-631.71045	1243.23254	1253.84375	-490.78448	1375.61646	1181.80615	-480.52640	1182.17163	1169.39197	-449.63986	1063.33459	1177.61914	-384.44733	951.42963	1216.05371	-327.73456	850.90143	1165.17004	-348.98108	843.67725	1178.93164	-300.17392	777.58716	1568.78174	-504.47498	1363.50220	1635.78564	-513.72363	1139.50195	1646.09509	-501.42529	1026.21802	1645.17456	-492.57782	889.17432	1605.96533	-470.87643	792.20587	1653.24194	-498.01501	789.39185	1639.78418	-480.74460	716.71136	1287.81116	-455.41272	936.16919	1526.31006	-444.46851	940.19696	1347.87097	-615.18555	963.88574	1495.47986	-607.25171	971.14484	1250.40173	-560.63672	644.52594	1281.00818	-596.23584	469.01501	1283.00659	-714.23260	306.11929	1324.53735	-799.88831	111.05220	1363.59338	-846.64520	91.86488	1345.15991	-665.87781	32.85677	1570.20837	-456.10840	648.44708	1531.56616	-398.69327	477.58398	1540.90479	-403.11450	289.70370	1497.88831	-379.14871	74.18293	1446.21802	-421.29465	41.64700	1483.05640	-236.29070	39.24283																					 
174	1.730	1345.32666	-414.63522	1622.58948	1478.12292	-420.14511	1631.51172	1347.51123	-539.55975	1570.65247	1478.50281	-540.21283	1579.49084	1407.84119	-564.20032	1419.08716	1409.29382	-603.38892	1107.51282	1411.79089	-443.24680	1339.79590	1406.25867	-403.49603	1173.72205	1498.35767	-623.94519	1244.75037	1255.33972	-483.42908	1377.50330	1183.82214	-474.74207	1183.65930	1171.58252	-445.49738	1064.33459	1178.99426	-382.50015	951.12921	1216.65515	-327.48212	849.24542	1165.91724	-349.32196	842.62158	1179.17334	-302.04559	775.23639	1570.11743	-496.61890	1365.24512	1636.87866	-505.27545	1141.23669	1646.82983	-492.89078	1028.04858	1646.36511	-484.51730	891.01288	1607.28552	-463.78046	793.72778	1654.90784	-490.44196	791.23877	1641.50085	-474.11880	718.19263	1289.34644	-447.51575	937.37189	1527.79602	-436.72128	942.40112	1348.91113	-607.14917	965.24799	1496.46594	-599.50183	972.84796	1250.80066	-552.36353	645.50439	1279.96704	-587.88159	469.77991	1282.39612	-708.18024	308.42105	1324.02490	-797.02576	114.84000	1363.19128	-843.98322	97.01103	1345.04126	-665.49603	32.81719	1571.73218	-449.05890	650.31873	1533.04785	-394.78064	478.31274	1542.01990	-402.06384	289.84433	1498.26648	-379.46506	74.26110	1446.48010	-421.36395	41.60179	1483.37292	-236.45042	39.22260	1390.95569	-501.39542	1681.16052																		 
